<?xml version="1.0" standalone="no"?>
<!DOCTYPE svg PUBLIC "-//W3C//DTD SVG 20010904//EN"
 "http://www.w3.org/TR/2001/REC-SVG-20010904/DTD/svg10.dtd">
<svg version="1.0" xmlns="http://www.w3.org/2000/svg"
 width="900.000000pt" height="900.000000pt" viewBox="0 0 900.000000 900.000000"
 preserveAspectRatio="xMidYMid meet">
<metadata>
Created by potrace 1.14, written by Peter Selinger 2001-2017
</metadata>
<g transform="translate(0.000000,900.000000) scale(0.100000,-0.100000)"
fill="#000000" stroke="none">
<path d="M2380 4945 l0 -2176 1123 4 c1221 3 1147 0 1332 59 97 31 279 125
356 183 91 69 225 208 286 296 50 72 123 207 123 226 0 12 -81 49 -137 63 -58
15 -703 13 -700 -2 3 -15 -75 -60 -153 -88 l-65 -25 -727 -3 -728 -3 0 556 0
556 728 -3 c724 -3 727 -3 787 -26 66 -24 127 -56 164 -84 22 -17 49 -18 340
-18 197 0 331 4 356 11 64 18 135 51 135 63 0 42 -136 255 -224 352 l-53 59
50 55 c27 30 68 80 91 110 51 69 136 220 136 241 0 18 -70 52 -141 68 -25 6
-180 11 -352 11 l-307 0 -54 -36 c-29 -19 -87 -47 -127 -62 l-74 -27 -728 -3
-727 -3 2 553 3 553 715 0 c666 0 719 -1 775 -18 62 -20 142 -57 185 -87 23
-17 59 -19 375 -23 210 -3 377 -10 418 -18 37 -6 70 -10 73 -7 7 8 -44 131
-88 211 -59 108 -123 191 -222 289 -194 192 -431 311 -706 353 -79 12 -279 15
-1167 15 l-1073 0 0 -2175z"/>
<path d="M3292 5789 l3 -423 33 1 c17 1 176 2 352 2 l320 1 0 65 0 66 723 -3
c666 -3 726 -5 777 -22 244 -80 400 -285 400 -526 0 -95 -22 -186 -62 -264
-45 -86 -155 -192 -242 -234 -126 -61 -130 -62 -898 -62 l-698 0 0 65 0 65
-355 0 -355 0 0 -485 0 -485 355 0 355 0 0 65 0 66 728 -4 c638 -2 733 -5 773
-19 199 -70 341 -218 384 -399 73 -310 -118 -608 -430 -674 -58 -12 -192 -15
-762 -15 l-693 0 0 65 0 65 -355 0 -355 0 0 -420 0 -421 1123 4 c1237 4 1145
-1 1351 68 352 117 651 415 780 776 113 317 89 688 -64 986 -53 104 -98 171
-179 265 l-68 78 53 58 c234 257 359 628 324 961 -20 193 -70 351 -161 510
-66 114 -120 185 -218 283 -131 131 -297 234 -470 292 -202 68 -112 63 -1349
67 l-1122 4 2 -422z"/>
</g>
</svg>
